<svg width="255" height="152" viewBox="0 0 255 152" fill="none" xmlns="http://www.w3.org/2000/svg">
<g clip-path="url(#clip0)">
<path d="M161.005 75.953C174.812 62.1013 174.812 39.6433 161.005 25.7917C147.198 11.94 124.813 11.94 111.006 25.7917C97.199 39.6433 97.199 62.1013 111.006 75.953C124.813 89.8046 147.198 89.8046 161.005 75.953Z" fill="#F23838"/>
<path d="M146.444 87.2553C146.444 87.2553 152.92 94.6987 147.294 106.292C147.207 106.472 147.171 106.671 147.189 106.87C147.207 107.068 147.278 107.258 147.395 107.419C147.512 107.58 147.67 107.706 147.852 107.784C148.035 107.863 148.235 107.89 148.432 107.863C157.136 106.612 163.495 95.7286 162.062 87.8074C160.521 79.2846 152.992 65.6466 150.519 64.6757C148.047 63.7049 146.658 64.8185 146.654 65.2107C146.65 65.6028 149.631 76.5243 149.704 76.8003C149.776 77.0763 139.66 74.7062 139.332 75.3763C139.003 76.0464 140.973 81.0417 141.679 81.5576C142.385 82.0735 146.444 87.2553 146.444 87.2553Z" fill="#F23838"/>
<path d="M150.18 81.4016C150.812 82.1078 158.235 90.7144 154.111 100.248C154.092 100.291 154.088 100.339 154.1 100.384C154.112 100.429 154.139 100.469 154.177 100.496C154.216 100.523 154.262 100.536 154.309 100.532C154.355 100.528 154.399 100.508 154.432 100.475C155.694 99.2791 158.203 96.2751 158.201 91.2893C158.197 91.2372 158.213 91.1856 158.247 91.1456C158.281 91.1056 158.328 91.0804 158.38 91.0754C158.432 91.0704 158.484 91.0861 158.525 91.1189C158.565 91.1518 158.591 91.1993 158.597 91.2512C159.056 93.6937 159.022 95.4051 158.939 96.3245C158.93 96.3485 158.927 96.374 158.928 96.3994C158.929 96.4248 158.936 96.4498 158.947 96.4727C158.957 96.4957 158.973 96.5163 158.992 96.5333C159.01 96.5504 159.033 96.5635 159.056 96.572C159.08 96.5805 159.106 96.5842 159.131 96.5829C159.156 96.5816 159.181 96.5752 159.204 96.5643C159.227 96.5533 159.248 96.5379 159.265 96.519C159.282 96.5001 159.295 96.478 159.303 96.454C161.268 93.3896 162.06 89.7144 161.531 86.1094C160.592 79.4294 152.882 69.6787 151.912 68.6069C150.943 67.5352 148.324 66.0788 148.087 66.7223C147.85 67.3657 147.603 70.4211 148.667 74.0762C149.335 76.4384 149.824 78.8477 150.13 81.2835C150.134 81.3271 150.152 81.3683 150.18 81.4016Z" fill="#FED2A9"/>
<path d="M127.764 59.0714C127.709 59.1141 127.665 59.1686 127.633 59.231C127.602 59.2934 127.585 59.362 127.584 59.4318C127.583 59.5016 127.597 59.5707 127.626 59.6342C127.655 59.6977 127.698 59.7539 127.751 59.7986L146.036 74.8491C146.118 74.9147 146.22 74.9502 146.325 74.9495C146.431 74.9489 146.532 74.9122 146.614 74.8455C146.695 74.7788 146.752 74.6862 146.774 74.583C146.795 74.4797 146.781 74.3721 146.734 74.278C144.614 70.324 139.649 61.7251 135.417 59.414C131.186 57.1029 128.692 58.3518 127.764 59.0714Z" fill="#FF8380"/>
<path d="M100.947 25.7895L100.899 25.8314C97.6734 28.3061 95.5425 30.1851 94.5008 31.1312C94.2939 31.3182 94.0272 31.4248 93.7488 31.4318C93.4704 31.4388 93.1987 31.3457 92.9828 31.1693L87.3186 26.5072L87.3054 26.4938C87.2503 26.4444 87.2101 26.3805 87.1893 26.3093C87.1685 26.2382 87.1679 26.1626 87.1876 26.0911C87.2074 26.0197 87.2466 25.9552 87.3009 25.9049C87.3553 25.8546 87.4225 25.8206 87.4951 25.8066C89.7532 25.3859 96.1364 24.337 100.668 24.9519C100.758 24.9645 100.844 25.0023 100.914 25.061C100.984 25.1197 101.037 25.1969 101.066 25.2839C101.095 25.371 101.099 25.4644 101.078 25.5537C101.057 25.6431 101.011 25.7247 100.947 25.7895V25.7895Z" fill="#FF8380"/>
<path d="M140.556 59.6103C140.258 59.3628 139.956 59.1242 139.649 58.8945C136.218 56.3055 132.396 54.7483 129.874 54.4285C129.39 54.3704 128.899 54.4363 128.446 54.62C127.994 54.8038 127.596 55.0994 127.288 55.4793L125.368 57.8285L123.33 60.5812C123.112 60.8773 123.013 61.2452 123.055 61.6111L123.108 62.0832C123.122 62.1322 123.116 62.1848 123.091 62.2294C123.067 62.274 123.026 62.307 122.977 62.3212C122.928 62.3353 122.876 62.3294 122.831 62.3048C122.787 62.2801 122.754 62.2388 122.74 62.1898C122.414 61.5368 122.167 60.8472 122.003 60.1357C121.965 59.928 121.973 59.7143 122.025 59.5097C122.078 59.3051 122.175 59.1147 122.309 58.9516L123.461 57.5429C123.626 57.3406 123.705 57.0807 123.68 56.8201C123.655 56.5596 123.527 56.3197 123.326 56.1532L117.578 51.4245C117.424 51.2969 117.229 51.2298 117.03 51.2358C116.83 51.2417 116.639 51.3203 116.493 51.4569C115.737 52.1678 114.848 52.7212 113.877 53.0852C112.907 53.4492 111.874 53.6166 110.838 53.5776C110.81 53.5756 110.783 53.5631 110.762 53.5424C110.742 53.5218 110.73 53.4944 110.729 53.4656C110.728 53.4367 110.737 53.4083 110.755 53.3858C110.773 53.3633 110.799 53.3482 110.827 53.3434V53.3434L111.172 53.2996L111.252 53.2882C111.364 53.2711 111.478 53.252 111.59 53.2292H111.622L111.939 53.1587L112.011 53.1416C112.121 53.115 112.231 53.0826 112.341 53.0521L112.404 53.0312C112.503 53.0026 112.594 52.9703 112.696 52.936L112.753 52.917C112.859 52.8789 112.967 52.8389 113.074 52.7951L113.146 52.7666C113.246 52.7247 113.345 52.6809 113.446 52.6352L113.472 52.6238C113.577 52.5743 113.681 52.521 113.785 52.4677L113.857 52.4296C113.96 52.3744 114.062 52.3192 114.165 52.2583L114.188 52.245C114.281 52.1898 114.377 52.1289 114.468 52.0679L114.535 52.0261C114.632 51.9613 114.725 51.8928 114.823 51.8243L114.871 51.79C114.956 51.7272 115.04 51.6606 115.121 51.5996L115.176 51.5578C115.267 51.4835 115.366 51.4055 115.446 51.3274L115.503 51.2741C115.586 51.198 115.668 51.1199 115.747 51.0418L115.774 51.0152C115.859 50.9295 115.943 50.842 116.026 50.7525L116.081 50.6897C116.165 50.5964 116.246 50.4993 116.326 50.406C117.261 49.2624 117.871 47.8858 118.088 46.4226C118.306 44.9595 118.125 43.4644 117.563 42.0965C117.106 40.9747 116.404 39.9702 115.508 39.1572C115.408 39.062 115.303 38.9668 115.195 38.883C113.522 37.5089 111.373 36.8574 109.221 37.0715C107.07 37.2857 105.09 38.3481 103.719 40.0252C103.651 40.109 103.584 40.1947 103.518 40.2822L103.47 40.347C103.41 40.4307 103.349 40.5126 103.292 40.5983V40.6116C103.231 40.6992 103.174 40.7886 103.119 40.8781L103.076 40.9466C103.024 41.0285 102.977 41.1122 102.93 41.196L102.914 41.2227C102.863 41.3121 102.816 41.413 102.768 41.4987L102.732 41.5691C102.692 41.651 102.651 41.7348 102.615 41.8185C102.615 41.8318 102.603 41.8433 102.597 41.8547C102.554 41.9499 102.514 42.0451 102.476 42.1383L102.448 42.2107C102.415 42.2925 102.383 42.3782 102.353 42.462C102.348 42.4768 102.343 42.4915 102.338 42.5057C102.305 42.6028 102.273 42.6961 102.243 42.797C102.243 42.8199 102.229 42.8446 102.222 42.8674C102.197 42.9512 102.174 43.0369 102.152 43.1206C102.147 43.138 102.142 43.1552 102.136 43.172C102.112 43.2691 102.089 43.3624 102.068 43.4652C102.068 43.4899 102.068 43.5147 102.053 43.5375C102.036 43.6232 102.019 43.707 102.005 43.7907L101.994 43.8478C101.979 43.9468 101.964 44.0382 101.95 44.1448C101.95 44.1677 101.95 44.1924 101.95 44.2153C101.939 44.299 101.93 44.3847 101.924 44.4684C101.924 44.4894 101.924 44.5103 101.924 44.5313C101.924 44.6303 101.911 44.7216 101.905 44.8301C101.905 44.853 101.905 44.8758 101.905 44.8987C101.905 44.9824 101.905 45.0662 101.905 45.15V45.1937C101.903 45.2305 101.888 45.2653 101.862 45.2917C101.837 45.3182 101.802 45.3344 101.766 45.3374C101.729 45.3404 101.693 45.33 101.663 45.3082C101.634 45.2863 101.613 45.2544 101.605 45.2185C101.347 43.5569 101.606 41.856 102.345 40.347C102.492 40.0449 102.532 39.702 102.46 39.374C102.387 39.046 102.206 38.7522 101.947 38.5404L98.6943 35.8619C98.5745 35.7634 98.4363 35.6901 98.2877 35.6463C98.1392 35.6025 97.9834 35.589 97.8296 35.6068C97.6758 35.6246 97.5271 35.6731 97.3924 35.7497C97.2577 35.8262 97.1396 35.9291 97.0453 36.0523C95.2787 38.3367 91.0188 44.2819 91.7892 47.3982C93.5425 52.0299 107.918 66.9262 127.485 69.6294C127.584 69.6442 127.677 69.6828 127.757 69.7417L130.011 71.455C130.113 71.5322 130.186 71.6405 130.22 71.7636C130.255 71.8866 130.248 72.0175 130.201 72.1363C130.154 72.2551 130.07 72.3551 129.961 72.4212C129.852 72.4872 129.724 72.5156 129.597 72.5021C125.193 72.0318 113.954 69.9473 101.643 60.6726C91.7417 52.3973 89.6184 48.253 89.7892 45.8715C90.7778 40.6744 96.311 33.9106 96.311 33.9106C97.4434 32.4689 98.7013 31.1311 100.07 29.9129C101.986 28.1996 104.491 26.3949 107.246 25.5344C116.527 26.4425 131.535 39.3723 141.248 59.0563C141.294 59.1494 141.306 59.2553 141.284 59.3564C141.261 59.4576 141.205 59.5479 141.124 59.6125C141.043 59.6772 140.943 59.7122 140.839 59.7118C140.736 59.7114 140.636 59.6756 140.556 59.6103V59.6103Z" fill="#FF8380"/>
<path d="M120.085 73.9698C119.949 73.9334 119.805 73.9346 119.669 73.9733C119.533 74.012 119.41 74.0867 119.313 74.1896C119.216 74.2924 119.148 74.4197 119.117 74.5579C119.086 74.6961 119.093 74.8401 119.136 74.9749C121.861 83.2502 130.284 89.2658 134.466 89.0793C134.558 89.0742 134.645 89.0385 134.714 88.9779C134.783 88.9174 134.829 88.8355 134.846 88.7452C134.863 88.655 134.85 88.5616 134.808 88.48C134.766 88.3984 134.698 88.3332 134.614 88.295C125.846 84.3715 121.237 74.2686 121.237 74.2686L120.085 73.9698Z" fill="#F23838"/>
<path d="M115.144 49.4197C116.254 48.0623 116.783 46.3196 116.617 44.572C116.45 42.8244 115.602 41.2138 114.256 40.0916L114.226 40.065C113.213 39.2314 111.976 38.7177 110.672 38.5891C109.369 38.4604 108.056 38.7224 106.901 39.3421C105.745 39.9618 104.799 40.9112 104.182 42.0703C103.564 43.2295 103.303 44.5463 103.432 45.8543C103.56 47.1623 104.072 48.4027 104.903 49.4187C105.734 50.4347 106.847 51.1807 108.101 51.5623C109.354 51.9439 110.692 51.9441 111.946 51.5627C113.2 51.1813 114.313 50.4355 115.144 49.4197V49.4197ZM105.846 41.7707C106.753 40.6599 108.063 39.9563 109.488 39.8146C110.912 39.6728 112.335 40.1046 113.442 41.0149C114.549 41.9252 115.25 43.2395 115.392 44.6686C115.533 46.0977 115.103 47.5246 114.195 48.6354C114.136 48.7077 114.076 48.7781 114.005 48.8467L113.977 48.8752L113.818 49.0427C113.78 49.0808 113.74 49.117 113.7 49.1532L113.626 49.2236C113.373 49.4524 113.099 49.6563 112.808 49.8328L112.783 49.848C112.725 49.8823 112.666 49.9165 112.605 49.9489L112.554 49.9775L112.392 50.0593L112.32 50.0955L112.17 50.1621L112.081 50.2002L111.941 50.2554L111.838 50.2935C111.795 50.3106 111.749 50.3239 111.706 50.3392L111.592 50.3753L111.465 50.4115L111.343 50.4458L111.22 50.4743L111.093 50.5029L110.969 50.5257L110.838 50.5486L110.717 50.5657L110.586 50.5809L110.461 50.5923L110.33 50.6019H110.203H110.076H109.943H109.821H109.683H109.615H109.558H109.467L109.3 50.5809H109.235L109 50.5429H108.964L108.764 50.4991L108.7 50.4838L108.523 50.4343L108.463 50.4172C108.309 50.3715 108.155 50.3182 108.004 50.2573L107.948 50.2345L107.778 50.1602L107.713 50.1298L107.537 50.0422L107.491 50.0193C107.419 49.9813 107.347 49.9413 107.277 49.8975L107.233 49.8728L107.066 49.7662L107 49.7224L106.854 49.6196L106.793 49.5739C106.725 49.5244 106.658 49.473 106.594 49.4197C106.043 48.9675 105.586 48.4104 105.251 47.7805C104.915 47.1507 104.707 46.4605 104.638 45.7496C104.569 45.0387 104.641 44.3212 104.85 43.6384C105.058 42.9555 105.4 42.3208 105.854 41.7707H105.846Z" fill="#FF8380"/>
<path d="M109.114 51.786C110.236 51.996 111.395 51.8909 112.461 51.4823C113.528 51.0737 114.462 50.3774 115.159 49.4702C115.856 48.5631 116.29 47.4803 116.413 46.3414C116.536 45.2024 116.343 44.0516 115.855 43.0157C115.446 42.055 114.814 41.2065 114.011 40.5409L113.979 40.5143C112.619 39.4021 110.876 38.8749 109.13 39.0479C107.384 39.2209 105.777 40.08 104.66 41.4376C104.461 41.6835 104.279 41.943 104.115 42.2143C103.641 43.1583 103.398 44.2022 103.407 45.2593C103.416 46.3164 103.676 47.3562 104.165 48.2923C104.655 49.2283 105.36 50.0336 106.223 50.6413C107.085 51.2489 108.079 51.6414 109.123 51.786H109.114ZM105.189 42.8044C105.579 42.1755 106.092 41.6333 106.699 41.2116C107.305 40.7898 107.991 40.4974 108.715 40.3524C109.439 40.2074 110.184 40.2129 110.906 40.3686C111.627 40.5243 112.309 40.8269 112.909 41.2576C113.509 41.6883 114.015 42.238 114.395 42.8726C114.774 43.5073 115.02 44.2134 115.117 44.9472C115.214 45.6811 115.16 46.4271 114.958 47.1391C114.756 47.8511 114.41 48.5139 113.943 49.0866C113.884 49.1589 113.823 49.2294 113.763 49.296L113.734 49.3264C113.683 49.3835 113.63 49.4388 113.575 49.494C113.52 49.5492 113.497 49.5682 113.457 49.6044L113.383 49.6748C113.131 49.9031 112.858 50.1064 112.567 50.2821L112.54 50.2992L112.364 50.4001L112.311 50.4287L112.15 50.5105L112.077 50.5467L111.928 50.6133L111.838 50.6514L111.698 50.7066L111.596 50.7447C111.552 50.7618 111.508 50.7751 111.463 50.7904L111.351 50.8265L111.222 50.8627L111.1 50.897L110.977 50.9255L110.85 50.9541L110.728 50.9769L110.597 50.9979C110.556 50.9979 110.516 51.0112 110.474 51.015L110.343 51.0321L110.218 51.0436L110.089 51.0531H109.96H109.835H109.58H109.44H109.372H109.315H109.224L109.059 51.0321H108.992L108.759 50.9922H108.721L108.531 50.9503L108.465 50.9331L108.288 50.8856L108.229 50.8684C108.074 50.8227 107.92 50.7694 107.768 50.7085L107.713 50.6857L107.542 50.6095L107.478 50.581C107.419 50.5524 107.36 50.5238 107.303 50.4934L107.258 50.4705L107.041 50.3487L107 50.3221L106.831 50.2174L106.766 50.1736L106.618 50.0708L106.558 50.0251L106.358 49.8709C105.34 49.0373 104.66 47.8598 104.444 46.559C104.229 45.2582 104.494 43.9234 105.189 42.8044V42.8044Z" fill="#F23838"/>
<path d="M140.28 49.8463C140.537 50.3671 140.832 50.8673 141.165 51.3426C141.387 51.6577 141.721 51.8762 142.098 51.9537C149.436 53.4519 155.339 58.1445 157.409 63.3758C157.439 63.4525 157.495 63.5166 157.566 63.5571C157.638 63.5977 157.721 63.6122 157.802 63.5983C157.883 63.5845 157.956 63.543 158.01 63.481C158.064 63.4189 158.095 63.3401 158.098 63.2578C158.126 61.3858 157.708 59.5342 156.878 57.8573C156.048 56.1804 154.831 54.7268 153.328 53.6175C149.533 50.8096 143.795 49.3076 141.153 48.7289C141.009 48.6972 140.859 48.707 140.72 48.7573C140.58 48.8075 140.458 48.896 140.367 49.0127C140.276 49.1294 140.22 49.2695 140.204 49.417C140.189 49.5645 140.215 49.7133 140.28 49.8463Z" fill="#FED2A9"/>
<path d="M113.349 47.9407C113.888 47.2807 114.221 46.4751 114.304 45.6256C114.387 44.7762 114.217 43.9212 113.816 43.1686C113.414 42.416 112.8 41.7996 112.049 41.3975C111.299 40.9953 110.447 40.8255 109.6 40.9093C108.753 40.9932 107.951 41.327 107.293 41.8685C106.635 42.4101 106.153 43.1351 105.906 43.9519C105.659 44.7687 105.659 45.6406 105.906 46.4573C106.153 47.274 106.636 47.9989 107.294 48.5403C108.177 49.265 109.31 49.6089 110.445 49.4965C111.58 49.3841 112.624 48.8246 113.349 47.9407V47.9407Z" fill="#FF8380"/>
<path d="M105.871 44.0857C105.633 44.9771 105.686 45.9215 106.023 46.7802C106.36 47.6389 106.962 48.3666 107.741 48.8565C108.521 49.3464 109.436 49.5727 110.353 49.5021C111.27 49.4315 112.141 49.0677 112.836 48.4642C113.074 47.5728 113.021 46.6284 112.684 45.7697C112.347 44.911 111.745 44.1833 110.966 43.6934C110.186 43.2035 109.271 42.9772 108.354 43.0478C107.437 43.1184 106.566 43.4822 105.871 44.0857V44.0857Z" fill="#F23838"/>
<path d="M106.861 49.5873L107.007 49.6901L107.074 49.7339L107.241 49.8405L107.284 49.8652C107.355 49.909 107.427 49.949 107.499 49.9871L107.544 50.0099L107.721 50.0975L107.785 50.1279L107.956 50.2022L108.011 50.225C108.163 50.2859 108.317 50.3392 108.47 50.3849L108.531 50.4021L108.708 50.4516L108.772 50.4668L108.971 50.5106H109.007L109.243 50.5486H109.307L109.474 50.5696H109.565H109.622H109.69H109.829H109.95H110.083H110.21H110.338L110.468 50.5601L110.594 50.5486L110.725 50.5334L110.846 50.5163L110.977 50.4934L111.1 50.4706L111.227 50.442L111.351 50.4135L111.472 50.3792L111.599 50.343L111.713 50.3069C111.757 50.2916 111.802 50.2783 111.846 50.2612L111.949 50.2231L112.089 50.1679L112.178 50.1298L112.328 50.0632L112.4 50.027L112.561 49.9452L112.613 49.9166C112.673 49.8843 112.732 49.85 112.791 49.8157L112.816 49.8005C113.107 49.6241 113.381 49.4201 113.634 49.1913L113.708 49.1209C113.747 49.0847 113.787 49.0485 113.825 49.0105L113.985 48.8429L114.013 48.8144C114.074 48.7459 114.134 48.6754 114.203 48.6031C114.88 47.7755 115.297 46.7652 115.401 45.6998C115.506 44.6344 115.293 43.5618 114.79 42.6177C114.287 41.6736 113.516 40.9004 112.575 40.3959C111.634 39.8914 110.565 39.6783 109.503 39.7835C108.441 39.8887 107.434 40.3075 106.609 40.987C105.784 41.6664 105.179 42.5759 104.87 43.6005C104.56 44.6251 104.561 45.7187 104.871 46.743C105.181 47.7673 105.787 48.6763 106.613 49.355C106.677 49.4083 106.744 49.4597 106.812 49.5092L106.861 49.5873ZM106.698 42.4656C107.238 41.8059 107.961 41.3217 108.775 41.0741C109.589 40.8265 110.458 40.8266 111.272 41.0745C112.086 41.3224 112.809 41.8069 113.348 42.4667C113.888 43.1265 114.22 43.9321 114.304 44.7815C114.387 45.6309 114.217 46.486 113.816 47.2387C113.415 47.9914 112.801 48.6079 112.05 49.0102C111.3 49.4126 110.448 49.5826 109.601 49.499C108.754 49.4153 107.952 49.0817 107.294 48.5403C106.413 47.8135 105.855 46.7655 105.743 45.6266C105.632 44.4876 105.975 43.3508 106.698 42.4656V42.4656Z" fill="#131D1E"/>
<path d="M154.975 50.8534C150.299 46.6653 146.034 45.5592 142.127 44.5979L141.383 44.4075C135.632 42.8084 130.144 37.1259 127.95 34.6302C127.628 34.2323 127.292 33.8344 126.947 33.4385C119.736 25.1822 107.544 17.3771 83.9562 23.012C83.7561 23.0618 83.5769 23.1739 83.4443 23.3323C83.3116 23.4906 83.2325 23.6871 83.2181 23.8934C82.8727 27.8969 81.1422 47.6171 94.9827 59.4637C103.22 66.5721 111.639 68.0189 113.958 72.3821C116.277 76.7453 118.123 85.072 125.041 88.7995C131.683 92.3765 137.134 93.6253 143.791 88.9346C143.883 88.8693 143.958 88.7833 144.011 88.6835C144.063 88.5838 144.092 88.4731 144.094 88.3602C144.097 88.2474 144.073 88.1355 144.024 88.0336C143.976 87.9317 143.904 87.8426 143.816 87.7734C143.341 87.4233 142.97 86.951 142.742 86.4065C142.706 86.3159 142.701 86.2161 142.728 86.1225C142.755 86.029 142.812 85.9469 142.89 85.8891C142.968 85.8314 143.063 85.8012 143.16 85.8031C143.257 85.8051 143.351 85.8392 143.427 85.9001C145.742 87.7543 151.749 93.8671 147.738 105.004C147.721 105.051 147.722 105.103 147.739 105.151C147.757 105.198 147.79 105.238 147.834 105.263C147.877 105.288 147.928 105.298 147.978 105.289C148.028 105.281 148.073 105.255 148.106 105.217C157.791 93.5549 147.798 82.8714 142.151 79.0279C142.109 78.9981 142.078 78.9545 142.064 78.9044C142.05 78.8544 142.054 78.801 142.074 78.7534C142.095 78.7057 142.132 78.6668 142.178 78.6433C142.224 78.6198 142.277 78.613 142.328 78.6243C145.132 79.2772 152.461 81.95 155.421 92.3308C155.446 92.407 155.494 92.4733 155.559 92.5203C155.624 92.5673 155.701 92.5926 155.781 92.5926C155.861 92.5926 155.939 92.5673 156.004 92.5203C156.069 92.4733 156.117 92.407 156.142 92.3308C158.229 85.013 151.567 72.3421 148.618 68.5348C148.588 68.4934 148.572 68.4427 148.574 68.3912C148.576 68.3397 148.596 68.2905 148.63 68.2519C148.664 68.2133 148.71 68.1876 148.761 68.1791C148.812 68.1707 148.864 68.1799 148.908 68.2054C154.766 71.6682 162.096 84.3239 160.466 96.7607C160.461 96.8113 160.473 96.8622 160.501 96.9046C160.529 96.9471 160.571 96.9784 160.62 96.9933C160.668 97.0082 160.72 97.0056 160.767 96.9861C160.814 96.9666 160.852 96.9313 160.876 96.8863C166.859 84.8265 160.43 71.7901 155.69 67.6762C155.653 67.6428 155.629 67.5974 155.622 67.5479C155.615 67.4985 155.626 67.4482 155.653 67.406C155.68 67.3638 155.72 67.3324 155.768 67.3174C155.815 67.3024 155.866 67.3047 155.912 67.324C157.022 67.7885 158.047 68.6033 158.749 69.2505C158.861 69.3533 158.996 69.4265 159.143 69.4634C159.29 69.5004 159.444 69.4999 159.59 69.4621C159.737 69.4243 159.872 69.3503 159.983 69.2468C160.094 69.1434 160.177 69.0138 160.225 68.8698C161.258 65.7611 162.781 57.8608 154.975 50.8534ZM87.4913 25.8066C89.7493 25.3878 96.1326 24.337 100.664 24.9519C100.76 24.9646 100.851 25.0057 100.924 25.07C100.997 25.1342 101.049 25.2187 101.074 25.3128C101.099 25.4069 101.096 25.5064 101.065 25.5987C101.034 25.691 100.976 25.7719 100.899 25.8314C97.6734 28.3061 95.5425 30.1851 94.5007 31.1312C94.2939 31.3182 94.0271 31.4248 93.7488 31.4318C93.4704 31.4388 93.1987 31.3457 92.9827 31.1693L87.3186 26.5072C87.2604 26.4592 87.217 26.3958 87.1933 26.3241C87.1696 26.2525 87.1666 26.1755 87.1847 26.1022C87.2027 26.0289 87.2411 25.9623 87.2954 25.91C87.3496 25.8576 87.4176 25.8218 87.4913 25.8066V25.8066ZM101.611 60.6573C91.7095 52.3839 89.5862 48.2396 89.7569 45.8581C90.7778 40.6744 96.311 33.9106 96.311 33.9106C96.311 33.9106 101.178 27.4381 107.245 25.5344C116.527 26.4424 131.533 39.3722 141.246 59.0563C141.292 59.1496 141.304 59.2556 141.281 59.3568C141.258 59.458 141.202 59.5483 141.121 59.6128C141.039 59.6772 140.939 59.7119 140.835 59.7111C140.732 59.7103 140.632 59.6741 140.552 59.6084C136.905 56.5911 132.618 54.7749 129.871 54.4266C129.386 54.3683 128.895 54.4341 128.443 54.6178C127.99 54.8016 127.592 55.0973 127.284 55.4774L125.364 57.8265L123.326 60.5736C123.108 60.8688 123.009 61.2363 123.051 61.6015L123.104 62.0737C123.118 62.1226 123.112 62.1752 123.088 62.2198C123.063 62.2645 123.022 62.2975 122.973 62.3116C122.924 62.3258 122.872 62.3199 122.827 62.2952C122.783 62.2706 122.75 62.2292 122.736 62.1803C122.41 61.5272 122.163 60.8377 122 60.1262C121.961 59.9184 121.969 59.7047 122.022 59.5002C122.074 59.2956 122.171 59.1051 122.305 58.9421L123.459 57.5334C123.624 57.331 123.702 57.0713 123.676 56.8112C123.651 56.5511 123.523 56.3117 123.322 56.1456L117.578 51.4245C117.424 51.2969 117.229 51.2298 117.03 51.2358C116.83 51.2417 116.639 51.3203 116.493 51.4568C115.737 52.1675 114.848 52.7209 113.877 53.0849C112.907 53.4489 111.874 53.6163 110.838 53.5775C110.807 53.579 110.777 53.5681 110.754 53.547C110.73 53.5259 110.717 53.4965 110.715 53.4652C110.714 53.4339 110.725 53.4033 110.746 53.3801C110.767 53.3569 110.796 53.343 110.827 53.3415V53.3415C110.943 53.33 111.059 53.3167 111.172 53.2996L111.252 53.2882C111.364 53.271 111.478 53.252 111.59 53.2292H111.622L111.939 53.1587L112.011 53.1416C112.121 53.113 112.231 53.0845 112.339 53.0521L112.404 53.0312C112.501 53.0026 112.594 52.9702 112.696 52.936L112.753 52.9169C112.859 52.8789 112.967 52.8389 113.074 52.7951L113.146 52.7666C113.246 52.7247 113.347 52.6809 113.446 52.6352L113.472 52.6238C113.577 52.5743 113.681 52.521 113.785 52.4677L113.856 52.4296C113.96 52.3744 114.062 52.3192 114.163 52.2583L114.186 52.2449C114.281 52.1878 114.375 52.1288 114.468 52.0679L114.535 52.026C114.632 51.9613 114.725 51.8947 114.823 51.8242L114.871 51.79C114.956 51.7271 115.04 51.6605 115.121 51.5996L115.176 51.5577C115.267 51.4835 115.356 51.4054 115.446 51.3255L115.503 51.2741C115.586 51.1979 115.668 51.1199 115.747 51.0418L115.776 51.0152C115.859 50.9301 115.943 50.8426 116.026 50.7525L116.083 50.6896C116.165 50.5964 116.246 50.4993 116.326 50.406C117.262 49.2623 117.871 47.8858 118.088 46.4226C118.306 44.9594 118.125 43.4644 117.563 42.0964C117.106 40.9746 116.404 39.9701 115.508 39.1571C115.408 39.0619 115.303 38.9668 115.195 38.883C113.522 37.5089 111.373 36.8573 109.221 37.0715C107.07 37.2857 105.09 38.348 103.719 40.0252C103.651 40.109 103.587 40.1946 103.529 40.2822L103.48 40.3469C103.419 40.4307 103.358 40.5126 103.301 40.5963V40.6096C103.241 40.6991 103.184 40.7886 103.129 40.8781L103.085 40.9466C103.036 41.0284 102.986 41.1122 102.939 41.196L102.924 41.2207C102.873 41.3121 102.825 41.4111 102.778 41.4968C102.766 41.5215 102.755 41.5444 102.742 41.5691C102.702 41.651 102.66 41.7347 102.622 41.8185C102.622 41.8318 102.611 41.8432 102.607 41.8547C102.563 41.9479 102.523 42.045 102.486 42.1383L102.457 42.2106C102.425 42.2944 102.393 42.3782 102.364 42.4619L102.347 42.5057C102.313 42.6028 102.282 42.6961 102.252 42.797C102.252 42.8198 102.239 42.8446 102.231 42.8674C102.207 42.9512 102.182 43.0349 102.161 43.1206C102.161 43.1377 102.161 43.1549 102.146 43.172C102.121 43.2691 102.098 43.3624 102.078 43.4671C102.078 43.4899 102.078 43.5147 102.062 43.5375C102.045 43.6213 102.028 43.7069 102.015 43.7907L102.004 43.8478C101.988 43.9468 101.973 44.0382 101.96 44.1448C101.96 44.1695 101.96 44.1924 101.96 44.2152C101.949 44.299 101.941 44.3846 101.933 44.4684C101.933 44.4893 101.933 44.5103 101.933 44.5312C101.924 44.6302 101.918 44.7216 101.914 44.8301C101.914 44.8529 101.914 44.8739 101.914 44.8967V45.1499V45.1937C101.917 45.2336 101.904 45.2731 101.879 45.3034C101.853 45.3337 101.816 45.3525 101.776 45.3555C101.736 45.3585 101.697 45.3456 101.667 45.3195C101.636 45.2935 101.618 45.2564 101.615 45.2166C101.356 43.5556 101.615 41.8552 102.355 40.3469C102.501 40.0451 102.542 39.7023 102.47 39.3743C102.398 39.0464 102.218 38.7524 101.958 38.5403L98.7019 35.8619C98.5822 35.7637 98.4441 35.6906 98.2957 35.647C98.1474 35.6033 97.9918 35.59 97.8382 35.6077C97.6846 35.6255 97.5362 35.674 97.4016 35.7503C97.2671 35.8267 97.1491 35.9293 97.0548 36.0522C95.2882 38.3366 91.0283 44.2818 91.7987 47.3982C93.552 52.0298 107.928 66.9261 127.495 69.6313C127.594 69.6443 127.687 69.683 127.766 69.7436L130.021 71.4569C130.122 71.534 130.196 71.6424 130.23 71.7654C130.264 71.8885 130.257 72.0194 130.21 72.1382C130.163 72.2569 130.079 72.357 129.97 72.4231C129.861 72.4891 129.733 72.5175 129.607 72.5039C125.153 72.0185 113.922 69.9321 101.611 60.6573ZM109.114 51.7862C108.1 51.645 107.133 51.2702 106.288 50.6912C105.443 50.1123 104.744 49.3448 104.244 48.449C103.744 47.5532 103.458 46.5535 103.408 45.5282C103.358 44.5029 103.546 43.48 103.956 42.5395C104.366 41.5991 104.988 40.7668 105.772 40.1078C106.557 39.4489 107.483 38.9812 108.478 38.7415C109.473 38.5018 110.509 38.4966 111.506 38.7262C112.504 38.9559 113.434 39.4142 114.226 40.0652L114.256 40.0918C115.363 41.0151 116.141 42.2754 116.471 43.6817C116.8 45.088 116.664 46.5638 116.083 47.8856C115.502 49.2074 114.507 50.3032 113.249 51.007C111.992 51.7108 110.54 51.9843 109.114 51.7862V51.7862ZM134.468 89.0793C130.294 89.2697 121.863 83.2502 119.138 74.9749C119.095 74.8402 119.088 74.6961 119.119 74.5579C119.15 74.4197 119.218 74.2925 119.315 74.1896C119.412 74.0867 119.535 74.012 119.671 73.9733C119.807 73.9346 119.95 73.9334 120.087 73.9698L121.239 74.2725C121.239 74.2725 125.848 84.3715 134.618 88.295C134.702 88.3334 134.77 88.3987 134.812 88.4804C134.854 88.5622 134.867 88.6557 134.85 88.7461C134.832 88.8364 134.785 88.9183 134.716 88.9787C134.647 89.0391 134.56 89.0745 134.468 89.0793V89.0793ZM146.043 74.8493L127.751 59.8007C127.698 59.756 127.655 59.6998 127.626 59.6363C127.597 59.5728 127.583 59.5037 127.584 59.4339C127.585 59.3641 127.602 59.2955 127.633 59.2331C127.665 59.1707 127.709 59.1162 127.764 59.0735C128.692 58.3539 131.169 57.0898 135.417 59.4104C139.666 61.731 144.614 70.3204 146.734 74.2744C146.783 74.3686 146.799 74.4771 146.778 74.5815C146.757 74.6859 146.7 74.7799 146.618 74.8474C146.536 74.915 146.434 74.9521 146.327 74.9524C146.221 74.9528 146.118 74.9163 146.036 74.8493H146.043ZM158.106 63.2597C158.103 63.342 158.072 63.4208 158.018 63.4829C157.964 63.5449 157.89 63.5864 157.809 63.6002C157.728 63.6141 157.645 63.5995 157.574 63.559C157.502 63.5184 157.447 63.4544 157.417 63.3777C155.347 58.1445 149.447 53.4519 142.106 51.9556C141.729 51.878 141.395 51.6596 141.172 51.3445C140.84 50.8692 140.544 50.369 140.288 49.8482C140.223 49.7152 140.197 49.5666 140.213 49.4195C140.229 49.2723 140.285 49.1326 140.376 49.0162C140.467 48.8998 140.589 48.8115 140.728 48.7613C140.867 48.7112 141.017 48.7012 141.161 48.7326C143.802 49.3038 149.533 50.8134 153.335 53.6213C154.837 54.7312 156.053 56.1849 156.881 57.8614C157.71 59.5379 158.127 61.3887 158.098 63.2597H158.106Z" fill="#131D1E"/>
<path d="M129.979 71.4416L127.724 69.7283C127.644 69.6693 127.551 69.6308 127.453 69.6159C107.886 66.9108 93.5102 52.0145 91.7569 47.3828C91.0833 44.6625 94.2483 39.7871 96.2369 37.0706C96.2662 35.8844 96.3931 34.7026 96.6164 33.5374C96.4267 33.7791 96.3147 33.9181 96.3147 33.9181C96.3147 33.9181 90.7778 40.6743 89.7569 45.858C89.5861 48.2395 91.7094 52.3838 101.611 60.6591C113.922 69.9339 125.161 72.0184 129.565 72.4886C129.692 72.5022 129.819 72.4738 129.928 72.4077C130.037 72.3417 130.122 72.2416 130.169 72.1228C130.216 72.0041 130.222 71.8731 130.188 71.7501C130.154 71.6271 130.08 71.5187 129.979 71.4416Z" fill="#F23838"/>
<path d="M112.281 26.962C109.218 26.7717 104.609 27.1334 103.184 30.7085C100.988 36.2177 109.837 33.2861 114.04 34.1675C118.243 35.0489 121.169 39.5625 121.863 43.9886C122.558 48.4146 124.869 50.2079 127.406 51.5862C129.943 52.9644 136.728 53.7849 139.639 58.7878C139.677 58.8525 139.715 58.9172 139.751 58.9782C140.024 59.1838 140.292 59.3957 140.556 59.614C140.636 59.6808 140.736 59.718 140.84 59.7194C140.944 59.7207 141.045 59.6861 141.127 59.6214C141.209 59.5567 141.266 59.4658 141.288 59.3639C141.311 59.262 141.298 59.1554 141.252 59.0619C133.146 42.6389 121.358 30.9198 112.281 26.962Z" fill="#FED2A9"/>
<path d="M100.664 24.9519C96.1326 24.337 89.7493 25.3859 87.4912 25.8066C87.4187 25.8206 87.3514 25.8546 87.2971 25.9049C87.2427 25.9552 87.2035 26.0197 87.1838 26.0911C87.164 26.1626 87.1646 26.2382 87.1854 26.3093C87.2062 26.3805 87.2464 26.4444 87.3015 26.4938L87.3148 26.5072L89.4419 28.2567C90.44 28.4013 91.7189 28.3042 93.347 27.6855C95.3132 26.9122 97.4396 26.6388 99.5367 26.8898C99.9656 26.551 100.415 26.1988 100.892 25.8314L100.939 25.7895C101.004 25.7249 101.049 25.6436 101.071 25.5546C101.092 25.4656 101.088 25.3723 101.059 25.2854C101.031 25.1984 100.979 25.1212 100.909 25.0623C100.839 25.0034 100.754 24.9651 100.664 24.9519V24.9519Z" fill="#FED2A9"/>
<path d="M135.417 59.4085C134.412 58.8367 133.324 58.428 132.191 58.1978C131.161 58.3291 130.208 58.7974 130.66 60.1909C131.512 62.8199 139.85 66.1989 143.791 70.8896C145.224 72.6029 146.165 73.787 146.781 74.6113C146.797 74.5549 146.801 74.4958 146.794 74.4377C146.787 74.3795 146.769 74.3234 146.74 74.2724C144.614 70.3185 139.649 61.7196 135.417 59.4085Z" fill="#FED2A9"/>
<path d="M112.019 42.3115C111.905 42.6751 111.222 42.7836 110.491 42.5551C109.761 42.3267 109.262 41.847 109.374 41.4833C109.486 41.1197 110.171 41.0112 110.892 41.2397C111.613 41.4681 112.131 41.9478 112.019 42.3115Z" fill="#FED2A9"/>
<path d="M101.123 31.5157C100.8 31.3158 100.867 30.6248 101.271 29.9718C101.675 29.3188 102.262 28.9533 102.584 29.1551C102.907 29.3569 102.84 30.0461 102.438 30.699C102.036 31.352 101.446 31.7175 101.123 31.5157Z" fill="#FED2A9"/>
<path d="M144.772 3.49726C144.468 3.37715 144.158 3.27481 143.842 3.19076C143.878 2.86585 143.894 2.53912 143.891 2.21227C143.894 1.61135 143.804 1.01364 143.626 0.439941C143.253 0.909829 142.954 1.43438 142.74 1.99525C142.62 2.3 142.518 2.61146 142.434 2.92805C142.109 2.89239 141.782 2.87586 141.455 2.87856C140.857 2.87639 140.261 2.96627 139.69 3.14507C140.159 3.51926 140.681 3.81909 141.241 4.03409C141.544 4.15447 141.853 4.25682 142.168 4.34059C142.133 4.66618 142.116 4.99348 142.117 5.32098C142.115 5.92223 142.205 6.52021 142.387 7.09331C142.761 6.62436 143.06 6.09959 143.273 5.538C143.394 5.23431 143.496 4.92342 143.578 4.6071C143.903 4.64275 144.229 4.65928 144.556 4.6566C145.155 4.65997 145.751 4.5694 146.322 4.38818C145.854 4.01274 145.331 3.71221 144.772 3.49726V3.49726Z" fill="#131D1E"/>
<path d="M154.186 8.71151C154.017 8.64393 153.845 8.58734 153.669 8.54208C153.689 8.36126 153.698 8.17948 153.696 7.99763C153.698 7.66395 153.649 7.33194 153.55 7.01343C153.341 7.27373 153.175 7.56539 153.056 7.8777C152.989 8.04674 152.932 8.21965 152.886 8.3955C152.706 8.3754 152.524 8.36586 152.343 8.36695C152.01 8.36647 151.68 8.41653 151.362 8.51543C151.622 8.72342 151.913 8.89033 152.223 9.01039C152.392 9.07797 152.564 9.13456 152.74 9.17981C152.72 9.36123 152.71 9.54366 152.711 9.72617C152.71 10.0599 152.76 10.3919 152.859 10.7104C153.067 10.4498 153.234 10.1582 153.352 9.8461C153.419 9.67696 153.476 9.50407 153.523 9.3283C153.703 9.3484 153.885 9.35794 154.066 9.35686C154.399 9.35758 154.73 9.30685 155.047 9.20647C154.787 8.99847 154.496 8.83157 154.186 8.71151V8.71151Z" fill="#131D1E"/>
<path d="M129.396 4.45096C129.227 4.38389 129.054 4.32668 128.878 4.27963C128.899 4.09894 128.909 3.91709 128.907 3.73518C128.908 3.40142 128.858 3.06942 128.759 2.75098C128.552 3.01206 128.386 3.30357 128.267 3.61525C128.2 3.78504 128.143 3.95856 128.096 4.13495C127.916 4.11395 127.735 4.10442 127.554 4.1064C127.221 4.10484 126.89 4.15493 126.573 4.25488C126.833 4.46298 127.123 4.62932 127.434 4.74794C127.603 4.81529 127.775 4.8725 127.95 4.91927C127.929 5.09997 127.92 5.28182 127.922 5.46372C127.919 5.79755 127.969 6.12969 128.07 6.44793C128.279 6.18763 128.445 5.89596 128.563 5.58365C128.63 5.41461 128.687 5.2417 128.734 5.06585C128.914 5.0869 129.095 5.09644 129.277 5.09441C129.609 5.09677 129.941 5.04666 130.258 4.94592C129.998 4.73694 129.707 4.56995 129.396 4.45096Z" fill="#131D1E"/>
<path d="M137.645 7.74826C137.455 7.67312 137.261 7.60955 137.064 7.5579C137.086 7.3543 137.096 7.14965 137.094 6.94491C137.097 6.5699 137.041 6.19681 136.929 5.83887C136.697 6.13259 136.51 6.45992 136.375 6.80975C136.301 7.00022 136.238 7.1947 136.186 7.39227C135.983 7.37064 135.78 7.36047 135.576 7.36181C135.202 7.35926 134.829 7.41579 134.472 7.52934C134.765 7.76243 135.092 7.94924 135.442 8.08331C135.631 8.15785 135.824 8.22141 136.02 8.27368C135.998 8.4772 135.988 8.68191 135.99 8.88666C135.988 9.26184 136.044 9.63507 136.157 9.9927C136.39 9.69945 136.577 9.37201 136.711 9.02182C136.785 8.83135 136.849 8.63687 136.901 8.4393C137.103 8.46157 137.307 8.47237 137.51 8.47166C137.884 8.47244 138.256 8.41529 138.612 8.30223C138.32 8.06861 137.994 7.88175 137.645 7.74826V7.74826Z" fill="#131D1E"/>
</g>
<path d="M22.6678 129L23.5308 126.251H28.0499L28.9129 129H32.3134L27.8965 115.909H23.6842L19.2673 129H22.6678ZM24.285 123.848L25.736 119.207H25.8383L27.2957 123.848H24.285ZM46.1429 129H49.3069V124.519H50.9305L53.3211 129H56.7728L54.0562 124.014C55.4944 123.362 56.3254 122.077 56.3254 120.268C56.3254 117.577 54.4909 115.909 51.5505 115.909H46.1429V129ZM49.3069 122.026V118.46H50.8666C52.2856 118.46 53.0463 119.054 53.0463 120.268C53.0463 121.483 52.2856 122.026 50.8666 122.026H49.3069ZM79.0718 120.185H82.2742C81.9546 117.577 79.6279 115.73 76.598 115.73C73.1016 115.73 70.3402 118.191 70.3402 122.474C70.3402 126.616 72.8843 129.179 76.6364 129.179C80.005 129.179 82.4148 127.089 82.4148 123.573V121.841H76.7706V124.148H79.3658C79.3338 125.529 78.375 126.405 76.662 126.405C74.6996 126.405 73.5682 124.954 73.5682 122.435C73.5682 119.936 74.7635 118.504 76.662 118.504C77.9276 118.504 78.7905 119.124 79.0718 120.185ZM109.055 122.455C109.055 118.127 106.32 115.73 102.804 115.73C99.2757 115.73 96.5591 118.127 96.5591 122.455C96.5591 126.763 99.2757 129.179 102.804 129.179C106.32 129.179 109.055 126.782 109.055 122.455ZM105.821 122.455C105.821 125.018 104.696 126.405 102.804 126.405C100.918 126.405 99.787 125.018 99.787 122.455C99.787 119.891 100.918 118.504 102.804 118.504C104.696 118.504 105.821 119.891 105.821 122.455ZM134.464 115.909H131.306V123.452H131.198L126.046 115.909H123.323V129H126.487V121.445H126.57L131.779 129H134.464V115.909ZM151.705 129L152.568 126.251H157.087L157.95 129H161.351L156.934 115.909H152.722L148.305 129H151.705ZM153.323 123.848L154.774 119.207H154.876L156.333 123.848H153.323ZM183.1 115.909V124.078C183.1 125.44 182.135 126.418 180.722 126.418C179.303 126.418 178.344 125.44 178.344 124.078V115.909H175.18V124.353C175.18 127.281 177.392 129.166 180.722 129.166C184.027 129.166 186.258 127.281 186.258 124.353V115.909H183.1ZM200.233 118.479H204.209V129H207.328V118.479H211.297V115.909H200.233V118.479ZM232.339 119.834H235.368C235.343 117.386 233.393 115.73 230.351 115.73C227.359 115.73 225.205 117.36 225.224 119.795C225.218 121.783 226.611 122.902 228.874 123.42L230.242 123.739C231.68 124.072 232.326 124.462 232.339 125.197C232.326 125.996 231.578 126.552 230.306 126.552C228.906 126.552 227.986 125.9 227.915 124.641H224.885C224.924 127.702 227.052 129.166 230.344 129.166C233.604 129.166 235.535 127.69 235.547 125.203C235.535 123.113 234.122 121.835 231.54 121.266L230.415 121.01C229.226 120.754 228.471 120.358 228.497 119.578C228.503 118.862 229.117 118.344 230.344 118.344C231.578 118.344 232.255 118.901 232.339 119.834Z" fill="white"/>
<path d="M57.0695 145.598H58.1278C58.0958 144.433 57.066 143.588 55.5887 143.588C54.1292 143.588 53.0106 144.422 53.0106 145.676C53.0106 146.688 53.735 147.281 54.9033 147.597L55.7627 147.831C56.5404 148.037 57.1406 148.293 57.1406 148.939C57.1406 149.65 56.4623 150.118 55.5283 150.118C54.6832 150.118 53.98 149.742 53.9161 148.95H52.8153C52.8863 150.267 53.9055 151.081 55.5354 151.081C57.2435 151.081 58.2272 150.182 58.2272 148.95C58.2272 147.64 57.0589 147.132 56.1356 146.905L55.4254 146.72C54.8572 146.574 54.1008 146.308 54.1043 145.612C54.1043 144.994 54.669 144.536 55.5639 144.536C56.3984 144.536 56.9914 144.927 57.0695 145.598ZM66.4385 150.96H67.5358V148.403H69.0272C70.714 148.403 71.5485 147.384 71.5485 146.042C71.5485 144.703 70.7211 143.687 69.0308 143.687H66.4385V150.96ZM67.5358 147.473V144.628H68.9136C70.0003 144.628 70.4441 145.218 70.4441 146.042C70.4441 146.866 70.0003 147.473 68.9278 147.473H67.5358ZM80.3493 150.96L81.0169 149.035H83.8578L84.5219 150.96H85.6867L83.0695 143.687H81.8017L79.1845 150.96H80.3493ZM81.3365 148.112L82.409 145.008H82.4658L83.5382 148.112H81.3365ZM99.6774 146.052C99.4288 144.497 98.2108 143.588 96.6731 143.588C94.791 143.588 93.4025 144.998 93.4025 147.324C93.4025 149.65 94.7839 151.059 96.6731 151.059C98.2711 151.059 99.4395 150.058 99.6774 148.62L98.5694 148.616C98.3812 149.547 97.6 150.058 96.6802 150.058C95.4338 150.058 94.4927 149.103 94.4927 147.324C94.4927 145.559 95.4302 144.589 96.6838 144.589C97.6106 144.589 98.3883 145.111 98.5694 146.052H99.6774ZM107.89 150.96H112.493V150.015H108.988V147.789H112.212V146.848H108.988V144.632H112.45V143.687H107.89V150.96ZM130.004 144.632H132.269V150.96H133.363V144.632H135.632V143.687H130.004V144.632ZM143.776 150.96H144.873V148.208H146.365C146.39 148.208 146.411 148.208 146.436 148.208L147.913 150.96H149.163L147.551 148.016C148.442 147.686 148.886 146.944 148.886 145.967C148.886 144.628 148.055 143.687 146.368 143.687H143.776V150.96ZM144.873 147.263V144.628H146.251C147.334 144.628 147.782 145.143 147.782 145.967C147.782 146.787 147.334 147.263 146.265 147.263H144.873ZM157.736 150.96L158.403 149.035H161.244L161.908 150.96H163.073L160.456 143.687H159.188L156.571 150.96H157.736ZM158.723 148.112L159.795 145.008H159.852L160.925 148.112H158.723ZM171.659 143.687H170.473L173.09 150.96H174.358L176.975 143.687H175.789L173.765 149.611H173.683L171.659 143.687ZM184.925 150.96H189.527V150.015H186.022V147.789H189.247V146.848H186.022V144.632H189.485V143.687H184.925V150.96ZM197.851 150.96H202.243V150.015H198.948V143.687H197.851V150.96Z" fill="white"/>
<defs>
<clipPath id="clip0">
<rect width="88.4" height="107.44" fill="white" transform="translate(82.96 0.439941)"/>
</clipPath>
</defs>
</svg>
